<svg width="15" height="19" viewBox="0 0 15 19" fill="none" xmlns="http://www.w3.org/2000/svg">
<path d="M7.19862 13.9951C7.65261 13.9951 8.088 13.8234 8.40902 13.5177C8.73004 13.2119 8.91039 12.7973 8.91039 12.3649C8.91039 11.9325 8.73004 11.5179 8.40902 11.2121C8.088 10.9064 7.65261 10.7346 7.19862 10.7346C6.74463 10.7346 6.30924 10.9064 5.98822 11.2121C5.6672 11.5179 5.48686 11.9325 5.48686 12.3649C5.48686 12.7973 5.6672 13.2119 5.98822 13.5177C6.30924 13.8234 6.74463 13.9951 7.19862 13.9951ZM12.3339 6.65901C12.7879 6.65901 13.2233 6.83077 13.5443 7.1365C13.8653 7.44223 14.0457 7.85689 14.0457 8.28926V16.4405C14.0457 16.8729 13.8653 17.2876 13.5443 17.5933C13.2233 17.899 12.7879 18.0708 12.3339 18.0708H2.06333C1.60934 18.0708 1.17394 17.899 0.852927 17.5933C0.531909 17.2876 0.351563 16.8729 0.351562 16.4405V8.28926C0.351562 7.85689 0.531909 7.44223 0.852927 7.1365C1.17394 6.83077 1.60934 6.65901 2.06333 6.65901H2.91921V5.02876C2.91921 3.94783 3.37007 2.91118 4.17262 2.14685C4.97517 1.38252 6.06365 0.953125 7.19862 0.953125C7.7606 0.953125 8.31708 1.05854 8.83628 1.26336C9.35548 1.46818 9.82724 1.76839 10.2246 2.14685C10.622 2.52531 10.9372 2.9746 11.1523 3.46908C11.3673 3.96356 11.478 4.49354 11.478 5.02876V6.65901H12.3339ZM7.19862 2.58338C6.51764 2.58338 5.86455 2.84101 5.38302 3.29961C4.90149 3.75821 4.63097 4.3802 4.63097 5.02876V6.65901H9.76627V5.02876C9.76627 4.3802 9.49575 3.75821 9.01422 3.29961C8.5327 2.84101 7.8796 2.58338 7.19862 2.58338Z" fill="#D9D9D9"/>
</svg>
