<svg width="15" height="14" viewBox="0 0 15 14" fill="none" xmlns="http://www.w3.org/2000/svg">
<path d="M7.19862 0.0703125C8.1066 0.0703125 8.97739 0.431005 9.61942 1.07304C10.2615 1.71508 10.6222 2.58587 10.6222 3.49384C10.6222 4.40182 10.2615 5.27261 9.61942 5.91464C8.97739 6.55668 8.1066 6.91737 7.19862 6.91737C6.29064 6.91737 5.41986 6.55668 4.77782 5.91464C4.13578 5.27261 3.77509 4.40182 3.77509 3.49384C3.77509 2.58587 4.13578 1.71508 4.77782 1.07304C5.41986 0.431005 6.29064 0.0703125 7.19862 0.0703125ZM7.19862 8.62914C10.9816 8.62914 14.0457 10.1612 14.0457 12.0527V13.7644H0.351562V12.0527C0.351562 10.1612 3.41562 8.62914 7.19862 8.62914Z" fill="#D9D9D9"/>
</svg>
